<?xml version="1.0" encoding="utf-8"?>
<!-- Generator: Adobe Illustrator 19.2.1, SVG Export Plug-In . SVG Version: 6.00 Build 0)  -->
<svg version="1.1" id="Layer_1" xmlns="http://www.w3.org/2000/svg" xmlns:xlink="http://www.w3.org/1999/xlink" x="0px" y="0px"
	 viewBox="0 0 24 24" style="enable-background:new 0 0 24 24;" xml:space="preserve">
<style type="text/css">
	.st0{fill-rule:evenodd;clip-rule:evenodd;fill:#E41E1F;}
	.st1{clip-path:url(#SVGID_2_);}
	.st2{clip-path:url(#SVGID_4_);}
</style>
<g id="Albania">
	<ellipse class="st0" cx="12" cy="12" rx="12" ry="12"/>
	<g>
		<defs>
			<path id="SVGID_1_" d="M17.8,14.5c-0.2-0.2-0.4-0.2-0.7,0c-0.3,0-0.5,0-0.7,0c0.1-0.1,0.2-0.2,0.4-0.3c0.2,0.1,0.4,0,0.5-0.2
				c0.1-0.1,0.2-0.1,0.3-0.1c-0.1-0.1-0.2-0.1-0.5,0c-0.3-0.2-0.4,0.1-0.4,0.2c-0.2,0.2-0.4,0.3-0.7,0.4c-0.5-0.1-0.9-0.2-1.3-0.3
				c0.1-0.1,0.2-0.2,0.3-0.3c0-0.1,0-0.1-0.1-0.1c-0.8-0.2-1.2-0.5-1.5-1.2c-0.1-0.3,0.1-0.4,0.2-0.2c0.1,0.3,0.2,0.6,0.6,0.8
				c0.1,0.1,0.5,0,0.3-0.2c-0.2-0.2-0.3-0.2-0.4-0.7c0-0.2,0.2-0.3,0.3-0.1c0.1,0.4,0.1,0.6,0.4,0.9c0.2,0.2,0.4,0.3,0.5,0.3
				c0.2,0,0.4-0.2,0.1-0.4c-0.4-0.2-0.6-0.4-0.6-0.6c-0.1-0.4,0-0.5,0.2-0.4c0.3,0.4,0.9,1,1.3,1.3c0.4,0.3,0.8,0.3,1.1,0
				c0.2-0.2,0.1-0.4-0.2-0.4c-0.7,0.1-1.2-0.3-1.7-1.1c-0.1-0.2-0.1-0.5,0.1-0.3c0.3,0.4,0.7,0.7,1.1,0.8c0.4,0.1,0.7,0.1,0.8-0.1
				c0.1-0.2,0.1-0.5-0.1-0.4c-0.2,0.1-0.5,0.1-0.8,0c-0.3-0.1-0.6-0.4-1-0.8c-0.1-0.2-0.1-0.4,0.2-0.3c0.6,0.5,1.3,0.8,1.6,0.6
				c0.3-0.2,0.3-0.6-0.1-0.6c-0.7,0.1-0.9-0.1-1.6-0.6c-0.2-0.1-0.1-0.4,0.1-0.2c0.6,0.3,1.3,0.5,1.6,0.3c0.3-0.2,0.2-0.7-0.2-0.5
				c-0.4,0.2-0.8,0.2-1.6-0.3c-0.2-0.2-0.1-0.4,0.1-0.3c0.6,0.4,1.6,0.5,1.8-0.2c0.1-0.3-0.1-0.4-0.3-0.2c-0.6,0.5-1.2,0.2-1.5,0
				c-0.1,0-0.3-0.3,0-0.3c0.8,0.2,1.7,0,1.8-0.5c0.1-0.2-0.1-0.5-0.4-0.2c-0.4,0.4-0.8,0.4-1.4,0.4c-0.3-0.1-0.3-0.3,0-0.4
				c0.4,0,0.8-0.2,1.2-0.4c0.3-0.2,0.6-0.4,0.7-0.8c0.1-0.3-0.3-0.6-0.5-0.3c-0.3,0.5-0.9,0.9-1.6,1c0-0.1-0.1-0.2-0.2-0.2
				c-0.4,0.2-1,0.4-1.4,0.7c-0.1,0.1,0,0.3,0,0.4c0,0.3-0.1,0.4-0.1,0.5c-0.1,0.1-0.3,0.2-0.4,0.1c-0.3-0.1-0.4-0.3-0.3-0.7
				c0,0,0-0.2,0.2-0.5c0.1-0.1,0.3-0.3,0.5-0.4c0.2-0.1,0.6-0.2,1-0.3c0.3,0,0.4-0.1,0.4-0.2c-0.1,0-0.3,0.1-0.5,0.1
				c-0.1,0-0.2-0.1-0.3-0.1c0.1,0,0.3,0,0.4,0c0.2,0,0.3,0,0.4,0c0.2,0,0.3-0.1,0.4-0.3c0-0.2-0.1-0.2-0.2-0.1
				c-0.1,0.1-0.1,0.1-0.2,0.2c-0.1,0-0.2,0.1-0.3,0.1c-0.2,0-0.3,0.1-0.5,0c0,0,0.1-0.1,0.2-0.2c0.1,0,0.2-0.1,0.2-0.1
				c0.1,0,0.1,0.1,0.2,0.1c0-0.2,0-0.4-0.6-0.3c0-0.2-0.3-0.2-0.5-0.2l0,0c-0.1,0-0.4,0.1-0.5,0.1C13.3,6,13,6.1,12.7,6.1
				c0.2,0.2,0.2,0.2,0.4,0.3c-0.3,0.1-0.5,0.3-0.6,0.4c0.2,0,0.3,0,0.4,0C12.6,7,12.5,7,12.3,7.2c0.1,0,0.2,0,0.2,0c0,0,0,0,0,0.1
				c-0.1,0-0.4,0.4-0.5,0.5c-0.1-0.1-0.4-0.4-0.5-0.5c0,0,0-0.1,0-0.1c0,0,0.1,0,0.2,0C11.6,7,11.4,7,11.1,6.9c0.1,0,0.2,0,0.4,0
				c-0.1-0.1-0.3-0.3-0.6-0.4c0.2-0.1,0.2-0.1,0.4-0.3C11,6.1,10.7,6,10.4,6C10.2,5.9,10,5.8,9.9,5.8l0,0C9.7,5.8,9.3,5.9,9.3,6
				C8.8,5.9,8.7,6.2,8.7,6.4c0.1-0.1,0.1-0.1,0.2-0.1c0.1,0,0.2,0,0.2,0.1c0.1,0,0.2,0.1,0.2,0.2c-0.2,0-0.4,0-0.5,0
				c-0.1,0-0.2-0.1-0.3-0.1c-0.1,0-0.1-0.1-0.2-0.2C8.3,6,8.2,6.1,8.2,6.3c0.1,0.2,0.2,0.3,0.4,0.3c0.1,0,0.2,0,0.4,0
				c0.2,0,0.3,0,0.4,0c-0.1,0-0.1,0.1-0.3,0.1c-0.1,0-0.3-0.1-0.5-0.1c0,0.1,0.1,0.2,0.4,0.2C9.6,7,9.9,7,10.2,7.2
				c0.2,0.1,0.4,0.3,0.5,0.4C10.9,7.8,10.9,8,10.9,8c0,0.4-0.1,0.6-0.3,0.7c-0.1,0-0.4,0-0.4-0.1C10,8.5,9.9,8.3,9.9,8.1
				c0-0.1,0.1-0.4,0-0.4C9.5,7.4,9,7.1,8.6,7c-0.1,0-0.2,0.1-0.2,0.2C7.6,7.1,7,6.6,6.7,6.1c-0.2-0.3-0.5,0-0.5,0.3
				C6.4,6.8,6.6,7,7,7.2c0.3,0.2,0.8,0.4,1.2,0.4c0.2,0,0.2,0.3,0,0.4c-0.5,0-1,0-1.4-0.4C6.4,7.3,6.3,7.6,6.3,7.8
				c0.1,0.6,1,0.7,1.8,0.5c0.3-0.1,0.1,0.3,0,0.3c-0.3,0.2-1,0.5-1.5,0c-0.3-0.2-0.4,0-0.3,0.2c0.2,0.7,1.2,0.6,1.8,0.2
				C8.3,9,8.5,9.2,8.3,9.4C7.5,9.9,7.1,9.9,6.7,9.7C6.3,9.5,6.2,10,6.5,10.2c0.3,0.2,1.1,0,1.6-0.3c0.2-0.2,0.2,0.1,0.1,0.2
				c-0.7,0.6-0.9,0.7-1.6,0.6c-0.3,0-0.3,0.4-0.1,0.6c0.4,0.2,1.1-0.1,1.6-0.6c0.2-0.1,0.3,0.1,0.2,0.3c-0.3,0.4-0.7,0.7-1,0.8
				c-0.3,0.1-0.6,0.1-0.8,0c-0.3-0.1-0.3,0.2-0.1,0.4c0.1,0.1,0.4,0.2,0.8,0.1c0.4-0.1,0.8-0.4,1.1-0.8c0.2-0.2,0.2,0.1,0.1,0.3
				c-0.6,0.9-1.1,1.2-1.7,1.1c-0.3-0.1-0.4,0.2-0.2,0.4c0.3,0.3,0.8,0.3,1.1,0c0.3-0.3,0.9-1,1.3-1.3c0.2-0.2,0.3,0,0.2,0.4
				c-0.1,0.2-0.2,0.4-0.6,0.6c-0.3,0.2-0.1,0.4,0.1,0.4c0.1,0,0.4-0.1,0.5-0.3c0.2-0.3,0.3-0.4,0.4-0.9c0.1-0.2,0.3-0.1,0.3,0.1
				c-0.1,0.4-0.2,0.5-0.4,0.7C9.3,13,9.6,13.1,9.7,13c0.3-0.2,0.5-0.5,0.6-0.8c0.1-0.2,0.3-0.1,0.2,0.2c-0.3,0.8-0.7,1.1-1.5,1.2
				c-0.1,0-0.1,0.1-0.1,0.1c0.1,0.1,0.2,0.2,0.3,0.3c-0.5,0.1-0.9,0.2-1.3,0.3c-0.2-0.2-0.4-0.3-0.7-0.4c-0.1-0.1-0.1-0.4-0.4-0.2
				c-0.2-0.1-0.3-0.1-0.5,0c0.2,0,0.3,0.1,0.3,0.1c0.1,0.2,0.3,0.3,0.5,0.2c0.1,0.1,0.2,0.2,0.4,0.3c-0.3,0-0.5,0-0.7,0
				c-0.3-0.3-0.5-0.3-0.7,0c-0.1,0-0.2,0-0.3,0.2c0.2-0.1,0.2-0.1,0.3,0c0.3,0.2,0.5,0.1,0.6,0c0.3,0,0.5,0,0.8,0
				c-0.1,0.1-0.2,0.1-0.3,0.2c-0.4-0.1-0.6,0-0.7,0.4c-0.1,0.1-0.1,0.3-0.1,0.4c0-0.1,0.1-0.2,0.2-0.3c0.4,0.1,0.5-0.1,0.5-0.3
				c0.2-0.1,0.4-0.2,0.6-0.3c0.2,0.1,0.3,0.1,0.5,0.2c0.1,0.2,0.2,0.3,0.5,0.2c0.3,0,0.3,0.1,0.3,0.2c0.1-0.1,0.1-0.3-0.1-0.4
				c-0.1-0.2-0.2-0.3-0.4-0.2c-0.2-0.1-0.2-0.1-0.4-0.2c0.5-0.2,0.8-0.2,1.3-0.3c0.1,0.1,0.2,0.2,0.3,0.3c0.1,0,0.1,0,0.2,0
				c0.3-0.4,0.4-0.8,0.7-1.1c0.1-0.1,0.2-0.3,0.4-0.3c0.1,0,0.2,0,0.2,0.1c0.1,0.1,0.1,0.2,0.1,0.4c0,0.3-0.1,0.3-0.2,0.5
				c-0.1,0.2-0.2,0.2-0.2,0.4c-0.2,0.2-0.4,0.4-0.6,0.5c-0.3,0.2-0.4,0.1-0.6,0.1c-0.3,0-0.4,0.2-0.1,0.4c0.2,0.1,0.4,0.1,0.6,0.1
				c0.1,0,0.3-0.2,0.4-0.3c0.1-0.1,0.3,0,0.2,0.2c-0.3,0.3-0.5,0.5-0.8,0.5c-0.3,0-0.3,0.2-0.1,0.3c0.4,0.2,0.8-0.1,1-0.3
				c0.1-0.2,0.2-0.2,0.2,0.1c-0.1,0.4-0.3,0.6-0.7,0.6c-0.3,0-0.3,0.2-0.1,0.3c0.4,0.3,0.7-0.2,0.9-0.5c0.1-0.3,0.3-0.1,0.3,0.1
				c0,0.3-0.1,0.5-0.5,0.8c0.3,0.4,0.6,0.9,0.9,1.3c0.3-0.4,0.6-0.9,0.9-1.3c-0.4-0.3-0.5-0.5-0.5-0.8c0-0.2,0.2-0.4,0.3-0.1
				c0.1,0.3,0.5,0.8,0.9,0.5c0.2-0.1,0.2-0.3-0.1-0.3c-0.3,0-0.5-0.2-0.7-0.6c0-0.2,0.1-0.2,0.2-0.1c0.2,0.2,0.5,0.5,1,0.3
				c0.2-0.1,0.3-0.3-0.1-0.3c-0.3,0-0.6-0.2-0.8-0.5c-0.1-0.2,0.1-0.3,0.2-0.2c0.1,0.1,0.3,0.3,0.4,0.3c0.2,0,0.4,0,0.6-0.1
				c0.2-0.2,0.2-0.3-0.1-0.4c-0.2,0-0.3,0.1-0.6-0.1c-0.1-0.1-0.4-0.2-0.6-0.5c-0.1-0.1-0.2-0.2-0.2-0.4c-0.1-0.2-0.1-0.2-0.2-0.5
				c0-0.2,0-0.3,0.1-0.4c0.1-0.1,0.2-0.1,0.2-0.1c0.2,0,0.3,0.2,0.4,0.3c0.3,0.3,0.4,0.7,0.7,1.1c0,0,0.1,0,0.2,0
				c0.1-0.1,0.2-0.2,0.3-0.3c0.5,0.2,0.8,0.2,1.3,0.3c-0.2,0.1-0.2,0.1-0.4,0.2c-0.2-0.1-0.4,0-0.4,0.2c-0.2,0.1-0.2,0.3-0.1,0.4
				c0-0.1,0-0.2,0.3-0.2c0.3,0.1,0.4,0,0.5-0.2c0.2-0.1,0.3-0.1,0.5-0.2c0.2,0.1,0.4,0.2,0.6,0.3c0,0.2,0.2,0.4,0.5,0.3
				c0.1,0.1,0.2,0.2,0.2,0.3c0-0.1,0-0.3-0.1-0.4c-0.1-0.3-0.3-0.5-0.7-0.4c-0.1-0.1-0.2-0.1-0.3-0.2c0.3,0,0.5,0,0.8,0
				c0.1,0.1,0.3,0.2,0.6,0c0.1-0.1,0.2,0,0.3,0C18,14.5,17.9,14.5,17.8,14.5 M14.1,6.2c0.2,0,0.3,0.1,0.3,0.1c0,0.1-0.1,0.1-0.3,0.1
				c-0.2,0-0.3-0.1-0.3-0.1C13.8,6.2,13.9,6.2,14.1,6.2 M9.9,6.4c-0.2,0-0.3-0.1-0.3-0.1c0-0.1,0.1-0.1,0.3-0.1
				c0.2,0,0.3,0.1,0.3,0.1C10.2,6.4,10.1,6.4,9.9,6.4"/>
		</defs>
		<clipPath id="SVGID_2_">
			<use xlink:href="#SVGID_1_"  style="overflow:visible;"/>
		</clipPath>
		<g class="st1">
			<defs>
				<rect id="SVGID_3_" x="-0.1" y="-1" width="24.4" height="24.4"/>
			</defs>
			<clipPath id="SVGID_4_">
				<use xlink:href="#SVGID_3_"  style="overflow:visible;"/>
			</clipPath>
			<rect x="0.9" y="0.7" class="st2" width="22.3" height="23"/>
		</g>
	</g>
</g>
</svg>
