<?xml version="1.0" encoding="utf-8"?>
<!-- Generator: Adobe Illustrator 20.1.0, SVG Export Plug-In . SVG Version: 6.00 Build 0)  -->
<svg version="1.1" id="Layer_1" xmlns="http://www.w3.org/2000/svg" xmlns:xlink="http://www.w3.org/1999/xlink" x="0px" y="0px"
	 viewBox="0 0 24 24" style="enable-background:new 0 0 24 24;" xml:space="preserve">
<style type="text/css">
	.st0{fill:#9E3039;}
	.st1{fill:#FFFFFF;}
</style>
<g id="Latvia">
	<g>
		<path class="st0" d="M23.8,9.6C22.6,4.1,17.8,0,12,0C6.2,0,1.4,4.1,0.2,9.6H23.8z"/>
		<path class="st0" d="M0.2,14.4C1.4,19.9,6.2,24,12,24c5.8,0,10.6-4.1,11.8-9.6H0.2z"/>
	</g>
	<path class="st1" d="M23.8,9.6H0.2C0.1,10.4,0,11.2,0,12c0,0.8,0.1,1.6,0.2,2.4h23.5c0.2-0.8,0.2-1.6,0.2-2.4
		C24,11.2,23.9,10.4,23.8,9.6z"/>
</g>
</svg>
